<?xml version="1.0" encoding="UTF-8" standalone="no"?><!DOCTYPE svg PUBLIC "-//W3C//DTD SVG 1.1//EN" "http://www.w3.org/Graphics/SVG/1.1/DTD/svg11.dtd"><svg width="100%" height="100%" viewBox="0 0 882 360" version="1.1" xmlns="http://www.w3.org/2000/svg" xmlns:xlink="http://www.w3.org/1999/xlink" xml:space="preserve" xmlns:serif="http://www.serif.com/" style="fill-rule:evenodd;clip-rule:evenodd;stroke-linejoin:round;stroke-miterlimit:1.41421;"><rect id="akali_logo_long" x="0" y="0" width="882" height="360" style="fill:none;"/><path d="M428.173,213.106l-50.135,0l24.972,-59.474l25.163,59.474Zm18.3,43.844l14.868,0l-58.331,-138.393l-58.331,138.393l14.869,0l12.772,-30.309l61.381,0l12.772,30.309Z" style="fill:#ff0057;fill-rule:nonzero;"/><path d="M541.975,259.047l10.103,-8.006l-36.218,-40.413l29.928,-29.928l-9.722,-8.006l-40.031,39.841l0,-99.506l-13.725,4.575l0,139.346l13.725,0l0,-26.687l10.484,-10.485l35.456,39.269Z" style="fill:#ff0057;fill-rule:nonzero;"/><path d="M635.572,194.616c-4.575,-9.531 -16.203,-17.538 -28.594,-17.538c-25.925,0 -40.603,19.635 -40.603,42.51c0,22.684 14.488,40.412 39.459,40.412c12.391,0 24.972,-7.816 29.738,-17.347l0,14.297l13.725,0l0,-78.918l-13.725,4.575l0,12.009Zm-27.641,52.803c-15.822,0 -27.45,-12.2 -27.45,-28.784c0,-16.966 11.628,-28.975 27.45,-28.975c16.013,0 27.641,12.009 27.641,28.975c0,16.584 -11.628,28.784 -27.641,28.784Z" style="fill:#ff0057;fill-rule:nonzero;"/><path d="M675.984,256.95l13.725,0l0,-143.921l-13.725,4.575l0,139.346Z" style="fill:#ff0057;fill-rule:nonzero;"/><path d="M716.396,163.163l16.013,-4.575l0,-17.156l-16.013,4.575l0,17.156Zm1.144,93.787l13.725,0l0,-79.109l-13.725,4.575l0,74.534Z" style="fill:#ff0057;fill-rule:nonzero;"/><g><path d="M216.477,128.908l0,130.33l-127.083,0l0,-158.854l146.94,0l-19.857,28.524Zm-115.169,-16.61l0,135.026l103.255,0l0,-122.154l8.96,-12.872l-112.215,0Z" style="fill:#ff0057;"/><path d="M216.477,179.811l-127.083,23.044l0,56.383l127.083,0l0,-79.427Z" style="fill:#ff0057;"/></g></svg>